Patient4_TMGait_0pt5_02_right_27_EMG.mot
version=1
nRows=13
nColumns=33
inDegrees=no
endheader
time	1LAddLong	2LGlutMax	3LGlutMed	4LIliopsoas	5LSemiMemb	6LBicFemLong	7LRecFem	8LVastMed	9LVastLat	10LGasMed	11LTibAnt	12lTibPost	13LPeroneusLong	14LSol	15LExtDigLong	16LFlexDigLong	17RAddLong	18RGlutMax	19RGlutMed	20RIliopsoas	21RSemiMemb	22RBicFemLong	23RRecFem	24RVastMed	25RVastLat	26RGasMed	27RTibAnt	28RTibPost	29RPeroneusLong	30RSol	31RExtDigLong	32RFlexDigLong
36.598	0.001678	0.018921	-0.050659	0.02243	0.054016	0.007782	0.076599	0.003967	0.006104	-0.005341	0.03479	0.000763	-0.011749	0.084076	0.017395	-0.008392	-0.010681	-0.10132	0.37521	-0.070496	-0.16541	-0.065155	0.010529	0.068817	0.055084	-0.013733	-0.010071	-0.007324	0.091858	0.010681	-0.008087	-0.002136
36.599	-0.00412	0.045776	-0.020447	0.00061	0.10437	-0.002441	0.093842	0.004425	0.023651	-0.081024	-0.039063	0.011139	0.082397	-0.079193	0.026855	0.002899	-0.039368	-0.096741	0.31525	0.003815	0.047607	0.070496	0.027008	0.028839	0.025024	-0.005646	0.010681	0.003967	-0.093689	0.006866	-0.002441	-0.003815
36.6	-0.005035	0.025024	-0.034027	0.007324	0.058289	0.000305	0.090027	0.001526	0.050507	-0.066223	-0.001221	0.005341	0.019836	-0.16281	0.22125	0.024414	-0.025482	-0.10391	-0.39352	0.076141	0.19058	0.056305	0.019073	0.016174	0.033112	-0.005493	0.021057	-0.010376	-0.38574	0.043488	0.001221	-0.003662
36.601	0.001831	0.048218	-0.035248	0.019836	-0.003967	0.012512	0.0914	-0.00351	0.076599	-0.046234	0.083923	0.01709	-0.031281	-0.10056	0.65124	0.016174	-0.036469	-0.053558	-0.39215	0.033722	0.27039	-0.057831	0.030823	-0.002289	0.033569	-0.007324	0.019684	-0.00412	-0.18662	0.009003	-0.003052	-0.002289
36.602	-0.000916	0.045471	0.018158	-0.004883	-0.007019	-0.000305	0.10773	-0.000763	0.079956	-0.014038	0.020447	-0.000153	0.031891	-0.013123	0.092621	0.011597	-0.016327	-0.09079	-0.18417	0.025635	0.10635	-0.12085	0.005646	-0.014191	0.005188	-0.003815	0.046082	-0.00412	-0.33981	-0.019531	-0.002747	-0.002899
36.603	0.000153	0.039063	0.052185	0.004883	-0.001068	-0.005188	0.11826	-0.006866	0.005341	0.018768	0.038147	0	0.061188	0.056	-0.18692	0.015106	0.001831	-0.06897	0.089569	-0.091248	0.028839	-0.1091	0.02243	-0.034027	0.014191	-0.006104	0.043793	0.006561	-0.64697	-0.031433	-0.001984	-0.003815
36.604	0.005646	0.059357	0.080109	0.018616	-0.035706	-0.008545	0.11581	-0.005035	-0.066528	0.063934	0.11658	-0.002594	0.030365	0.049133	0.022888	-0.008545	0.033417	-0.084381	0.37201	-0.25574	-0.00061	-0.11932	0.029449	-0.041962	-0.005188	-0.007477	0.027161	-0.009003	-0.58548	-0.039063	-0.001221	-0.001678
36.605	-0.003357	0.067902	0.04715	0.012512	-0.033264	-0.005341	0.11993	-0.007629	-0.092163	0.091248	-0.041809	-0.013733	0.046082	0.19898	-0.25818	-0.022736	0.039215	-0.10269	0.37918	-0.20126	-0.032654	-0.05722	0.032806	-0.027618	-0.003204	-0.005493	0.005188	-0.001984	0.10651	-0.022583	-0.002441	0.002899
36.606	-0.005341	0.072937	0.041962	0.002594	-0.063477	-0.001984	0.11871	-0.001984	-0.031433	0.079041	-0.1648	-0.005188	0.056763	0.26855	0.067749	0.006866	0.027008	-0.11627	0.40741	0.009613	-0.098419	0.14679	0.04303	-0.019989	0.008392	-0.002289	-0.022125	-0.004578	1.187	-0.049591	-0.002136	-0.004272
36.607	0.003815	0.071411	0.042419	0.01236	0.000763	0.003357	0.11307	0.002289	-0.015564	0.003357	-0.23666	0.001678	0.052795	0.36301	-0.17792	-0.001526	0.019989	-0.11261	0.083008	0.22446	0.022888	0.18219	0.037994	0.029449	0.00351	-0.003967	-0.054932	-0.009003	0.55573	-0.056	-0.001526	0.001526
36.608	0.011749	0.092163	0.00061	-0.003052	0.086975	0.031738	0.13214	-0.002747	-0.007324	-0.034637	-0.045013	0.005188	-0.006104	0.23361	0.01297	-0.001526	0.003662	-0.14801	-0.26108	0.36057	0.012054	0.084686	0.007477	0.040588	0.028229	-0.00824	-0.007782	-0.005951	-0.079346	-0.045319	-0.002747	-0.002899
36.609	0.014038	0.066528	-0.000305	-0.000458	0.02533	0.035553	0.13214	0.004578	-0.016022	-0.1004	0.036316	0.000916	-0.049591	0.035858	-0.19272	-0.005035	-0.002136	-0.15182	-0.4863	0.19684	0.010376	0.09079	0.030365	0.026855	-0.002289	-0.014496	0.03479	-0.010376	-0.050964	-0.008545	0.002441	-0.008698
36.61	0.00885	0.062103	0.065765	-0.011902	0.025482	0.010986	0.11719	0.000305	-0.024261	-0.11627	0.028534	0.002899	-0.061951	-0.044403	-0.47852	0.012665	-0.013428	-0.11368	-0.059967	0.021515	0.073853	0.081177	0.013733	-0.009155	-0.006866	-0.018463	0.052795	-0.008392	-0.15274	0.049591	-0.002899	0.005188
